<svg xmlns="http://www.w3.org/2000/svg" width="2560" height="1440"><path d="M1346,653L1354,475L1191,600Z" fill="#55bbc2" stroke="#55bbc2" stroke-width="1.51"/><path d="M1354,475L1166,430L1191,600Z" fill="#62c0c0" stroke="#62c0c0" stroke-width="1.51"/><path d="M1191,600L1188,809L1346,653Z" fill="#4ab8c3" stroke="#4ab8c3" stroke-width="1.51"/><path d="M991,625L1188,809L1191,600Z" fill="#56bcc2" stroke="#56bcc2" stroke-width="1.51"/><path d="M1346,653L1554,649L1354,475Z" fill="#50b5c2" stroke="#50b5c2" stroke-width="1.51"/><path d="M1374,830L1554,649L1346,653Z" fill="#3eb0c4" stroke="#3eb0c4" stroke-width="1.51"/><path d="M1188,809L1374,830L1346,653Z" fill="#3fb2c4" stroke="#3fb2c4" stroke-width="1.51"/><path d="M1554,649L1560,463L1354,475Z" fill="#56b4c0" stroke="#56b4c0" stroke-width="1.51"/><path d="M1354,475L1196,289L1166,430Z" fill="#71c5bf" stroke="#71c5bf" stroke-width="1.51"/><path d="M1382,267L1196,289L1354,475Z" fill="#76c5be" stroke="#76c5be" stroke-width="1.51"/><path d="M978,428L991,625L1166,430Z" fill="#70c6be" stroke="#70c6be" stroke-width="1.51"/><path d="M1166,430L991,625L1191,600Z" fill="#66c1bf" stroke="#66c1bf" stroke-width="1.51"/><path d="M1560,463L1382,267L1354,475Z" fill="#6abdbf" stroke="#6abdbf" stroke-width="1.51"/><path d="M1036,279L978,428L1166,430Z" fill="#7fcbbc" stroke="#7fcbbc" stroke-width="1.51"/><path d="M1374,830L1549,817L1554,649Z" fill="#38a9c3" stroke="#38a9c3" stroke-width="1.51"/><path d="M1554,649L1704,658L1560,463Z" fill="#4bacc1" stroke="#4bacc1" stroke-width="1.51"/><path d="M1196,289L1036,279L1166,430Z" fill="#82cbbd" stroke="#82cbbd" stroke-width="1.51"/><path d="M1223,126L1036,279L1196,289Z" fill="#90d0bb" stroke="#90d0bb" stroke-width="1.51"/><path d="M1560,463L1560,286L1382,267Z" fill="#73bdbe" stroke="#73bdbe" stroke-width="1.51"/><path d="M991,625L997,817L1188,809Z" fill="#55bac2" stroke="#55bac2" stroke-width="1.51"/><path d="M1202,984L1399,970L1374,830Z" fill="#34a5c3" stroke="#34a5c3" stroke-width="1.51"/><path d="M842,628L997,817L991,625Z" fill="#63c1c0" stroke="#63c1c0" stroke-width="1.51"/><path d="M1374,830L1399,970L1549,817Z" fill="#33a4c3" stroke="#33a4c3" stroke-width="1.51"/><path d="M1202,984L1374,830L1188,809Z" fill="#3cacc3" stroke="#3cacc3" stroke-width="1.51"/><path d="M1549,817L1704,658L1554,649Z" fill="#38a7c3" stroke="#38a7c3" stroke-width="1.51"/><path d="M1560,463L1726,464L1560,286Z" fill="#65b4be" stroke="#65b4be" stroke-width="1.51"/><path d="M1012,963L1202,984L1188,809Z" fill="#47acc1" stroke="#47acc1" stroke-width="1.51"/><path d="M1382,267L1223,126L1196,289Z" fill="#8acdbd" stroke="#8acdbd" stroke-width="1.51"/><path d="M1384,125L1223,126L1382,267Z" fill="#8fcdbd" stroke="#8fcdbd" stroke-width="1.51"/><path d="M1704,658L1726,464L1560,463Z" fill="#51acbf" stroke="#51acbf" stroke-width="1.51"/><path d="M1530,125L1384,125L1382,267Z" fill="#8dc8bc" stroke="#8dc8bc" stroke-width="1.51"/><path d="M978,428L854,464L991,625Z" fill="#76c8bd" stroke="#76c8bd" stroke-width="1.51"/><path d="M828,253L854,464L978,428Z" fill="#89d0ba" stroke="#89d0ba" stroke-width="1.51"/><path d="M854,464L842,628L991,625Z" fill="#72c7bd" stroke="#72c7bd" stroke-width="1.51"/><path d="M997,817L1012,963L1188,809Z" fill="#50b2c1" stroke="#50b2c1" stroke-width="1.51"/><path d="M828,998L1012,963L997,817Z" fill="#57b1bf" stroke="#57b1bf" stroke-width="1.51"/><path d="M1560,286L1530,125L1382,267Z" fill="#85c2bc" stroke="#85c2bc" stroke-width="1.51"/><path d="M1718,117L1530,125L1560,286Z" fill="#89bfbc" stroke="#89bfbc" stroke-width="1.51"/><path d="M1549,817L1733,804L1704,658Z" fill="#31a1c2" stroke="#31a1c2" stroke-width="1.51"/><path d="M1704,658L1902,650L1726,464Z" fill="#49a2bd" stroke="#49a2bd" stroke-width="1.51"/><path d="M1733,985L1733,804L1549,817Z" fill="#2999c1" stroke="#2999c1" stroke-width="1.51"/><path d="M1399,970L1578,1008L1549,817Z" fill="#2c9dc2" stroke="#2c9dc2" stroke-width="1.51"/><path d="M1517,1155L1578,1008L1399,970Z" fill="#2a94bf" stroke="#2a94bf" stroke-width="1.51"/><path d="M1036,279L828,253L978,428Z" fill="#8ed2bb" stroke="#8ed2bb" stroke-width="1.51"/><path d="M1223,126L1010,103L1036,279Z" fill="#9bd5ba" stroke="#9bd5ba" stroke-width="1.51"/><path d="M1166,-80L1010,103L1223,126Z" fill="#a2d7bb" stroke="#a2d7bb" stroke-width="1.51"/><path d="M1366,-80L1223,126L1384,125Z" fill="#99d1bc" stroke="#99d1bc" stroke-width="1.51"/><path d="M842,628L809,815L997,817Z" fill="#63bfc0" stroke="#63bfc0" stroke-width="1.51"/><path d="M671,780L809,815L842,628Z" fill="#70c3bf" stroke="#70c3bf" stroke-width="1.51"/><path d="M1726,464L1734,244L1560,286Z" fill="#70b5bd" stroke="#70b5bd" stroke-width="1.51"/><path d="M1900,419L1734,244L1726,464Z" fill="#68abba" stroke="#68abba" stroke-width="1.51"/><path d="M1010,103L828,253L1036,279Z" fill="#9dd7b9" stroke="#9dd7b9" stroke-width="1.51"/><path d="M633,650L671,780L842,628Z" fill="#7ac8be" stroke="#7ac8be" stroke-width="1.51"/><path d="M1202,984L1334,1149L1399,970Z" fill="#339dc0" stroke="#339dc0" stroke-width="1.51"/><path d="M1220,1188L1334,1149L1202,984Z" fill="#3998bc" stroke="#3998bc" stroke-width="1.51"/><path d="M1733,804L1902,650L1704,658Z" fill="#379ebf" stroke="#379ebf" stroke-width="1.51"/><path d="M1578,1008L1733,985L1549,817Z" fill="#2697c1" stroke="#2697c1" stroke-width="1.51"/><path d="M1745,1162L1733,985L1578,1008Z" fill="#1f8bbd" stroke="#1f8bbd" stroke-width="1.51"/><path d="M1530,125L1366,-80L1384,125Z" fill="#97cbbc" stroke="#97cbbc" stroke-width="1.51"/><path d="M1734,244L1718,117L1560,286Z" fill="#82bbbc" stroke="#82bbbc" stroke-width="1.51"/><path d="M1884,837L1902,650L1733,804Z" fill="#3396bd" stroke="#3396bd" stroke-width="1.51"/><path d="M1734,244L1901,115L1718,117Z" fill="#88b5b9" stroke="#88b5b9" stroke-width="1.51"/><path d="M1902,650L1900,419L1726,464Z" fill="#54a2bb" stroke="#54a2bb" stroke-width="1.51"/><path d="M991,1169L1220,1188L1202,984Z" fill="#459bbb" stroke="#459bbb" stroke-width="1.51"/><path d="M991,1169L1202,984L1012,963Z" fill="#4ba4be" stroke="#4ba4be" stroke-width="1.51"/><path d="M1334,1149L1517,1155L1399,970Z" fill="#2f93bd" stroke="#2f93bd" stroke-width="1.51"/><path d="M1382,1311L1517,1155L1334,1149Z" fill="#3188b8" stroke="#3188b8" stroke-width="1.51"/><path d="M809,815L828,998L997,817Z" fill="#5fb6bf" stroke="#5fb6bf" stroke-width="1.51"/><path d="M1548,-121L1366,-80L1530,125Z" fill="#9dcbbb" stroke="#9dcbbb" stroke-width="1.51"/><path d="M1366,-80L1166,-80L1223,126Z" fill="#a1d6bb" stroke="#a1d6bb" stroke-width="1.51"/><path d="M1010,103L840,68L828,253Z" fill="#a7dbb8" stroke="#a7dbb8" stroke-width="1.51"/><path d="M1733,985L1884,837L1733,804Z" fill="#2a92be" stroke="#2a92be" stroke-width="1.51"/><path d="M809,815L667,977L828,998Z" fill="#6ab6be" stroke="#6ab6be" stroke-width="1.51"/><path d="M643,423L842,628L854,464Z" fill="#84cebb" stroke="#84cebb" stroke-width="1.51"/><path d="M828,253L643,423L854,464Z" fill="#94d4b9" stroke="#94d4b9" stroke-width="1.51"/><path d="M630,301L643,423L828,253Z" fill="#a2d9b8" stroke="#a2d9b8" stroke-width="1.51"/><path d="M643,423L633,650L842,628Z" fill="#86cebc" stroke="#86cebc" stroke-width="1.51"/><path d="M866,-69L840,68L1010,103Z" fill="#afdeb7" stroke="#afdeb7" stroke-width="1.51"/><path d="M828,998L991,1169L1012,963Z" fill="#56a7bc" stroke="#56a7bc" stroke-width="1.51"/><path d="M1900,419L1933,259L1734,244Z" fill="#74aab8" stroke="#74aab8" stroke-width="1.51"/><path d="M2051,435L1933,259L1900,419Z" fill="#68a0b5" stroke="#68a0b5" stroke-width="1.51"/><path d="M647,62L630,301L828,253Z" fill="#b1e0b7" stroke="#b1e0b7" stroke-width="1.51"/><path d="M643,423L489,616L633,650Z" fill="#92d2bb" stroke="#92d2bb" stroke-width="1.51"/><path d="M1213,-235L1019,-107L1166,-80Z" fill="#afdbbe" stroke="#afdbbe" stroke-width="1.51"/><path d="M1166,-80L1019,-107L1010,103Z" fill="#acdbb9" stroke="#acdbb9" stroke-width="1.51"/><path d="M1718,117L1548,-121L1530,125Z" fill="#94c4bb" stroke="#94c4bb" stroke-width="1.51"/><path d="M1366,-80L1213,-235L1166,-80Z" fill="#a8d8be" stroke="#a8d8be" stroke-width="1.51"/><path d="M1732,-103L1548,-121L1718,117Z" fill="#99c2bb" stroke="#99c2bb" stroke-width="1.51"/><path d="M685,1150L841,1143L828,998Z" fill="#66a6b9" stroke="#66a6b9" stroke-width="1.51"/><path d="M828,998L841,1143L991,1169Z" fill="#5aa2b9" stroke="#5aa2b9" stroke-width="1.51"/><path d="M671,780L667,977L809,815Z" fill="#72bdbe" stroke="#72bdbe" stroke-width="1.51"/><path d="M496,839L667,977L671,780Z" fill="#7dc0bd" stroke="#7dc0bd" stroke-width="1.51"/><path d="M1517,1155L1745,1162L1578,1008Z" fill="#2588bb" stroke="#2588bb" stroke-width="1.51"/><path d="M1733,985L1910,1013L1884,837Z" fill="#258abc" stroke="#258abc" stroke-width="1.51"/><path d="M1583,1338L1745,1162L1517,1155Z" fill="#277eb7" stroke="#277eb7" stroke-width="1.51"/><path d="M1220,1188L1382,1311L1334,1149Z" fill="#368cb8" stroke="#368cb8" stroke-width="1.51"/><path d="M1214,1329L1382,1311L1220,1188Z" fill="#3987b6" stroke="#3987b6" stroke-width="1.51"/><path d="M1214,1329L1220,1188L1027,1356Z" fill="#468ab4" stroke="#468ab4" stroke-width="1.51"/><path d="M1933,259L1901,115L1734,244Z" fill="#82afb7" stroke="#82afb7" stroke-width="1.51"/><path d="M1019,-107L866,-69L1010,103Z" fill="#b0deb8" stroke="#b0deb8" stroke-width="1.51"/><path d="M840,68L647,62L828,253Z" fill="#b3e0b6" stroke="#b3e0b6" stroke-width="1.51"/><path d="M1745,1162L1910,1013L1733,985Z" fill="#2284ba" stroke="#2284ba" stroke-width="1.51"/><path d="M2071,644L2051,435L1902,650Z" fill="#4c94b7" stroke="#4c94b7" stroke-width="1.51"/><path d="M1902,650L2051,435L1900,419Z" fill="#559bb7" stroke="#559bb7" stroke-width="1.51"/><path d="M2071,644L1902,650L1884,837Z" fill="#3892ba" stroke="#3892ba" stroke-width="1.51"/><path d="M1933,259L2063,116L1901,115Z" fill="#86a9b3" stroke="#86a9b3" stroke-width="1.51"/><path d="M1027,1356L1220,1188L991,1169Z" fill="#4b90b6" stroke="#4b90b6" stroke-width="1.51"/><path d="M2120,817L2071,644L1884,837Z" fill="#358ab8" stroke="#358ab8" stroke-width="1.51"/><path d="M630,301L506,432L643,423Z" fill="#a3dab8" stroke="#a3dab8" stroke-width="1.51"/><path d="M633,650L496,839L671,780Z" fill="#82c8be" stroke="#82c8be" stroke-width="1.51"/><path d="M446,255L506,432L630,301Z" fill="#b0dfb7" stroke="#b0dfb7" stroke-width="1.51"/><path d="M1901,115L1732,-103L1718,117Z" fill="#92b8b8" stroke="#92b8b8" stroke-width="1.51"/><path d="M1335,-292L1366,-80L1548,-121Z" fill="#a5d1c1" stroke="#a5d1c1" stroke-width="1.51"/><path d="M1335,-292L1213,-235L1366,-80Z" fill="#a8d7c4" stroke="#a8d7c4" stroke-width="1.51"/><path d="M1019,-107L986,-237L866,-69Z" fill="#b8e0bb" stroke="#b8e0bb" stroke-width="1.51"/><path d="M506,432L489,616L643,423Z" fill="#9cd7b9" stroke="#9cd7b9" stroke-width="1.51"/><path d="M656,-86L647,62L840,68Z" fill="#c0e5b5" stroke="#c0e5b5" stroke-width="1.51"/><path d="M1745,1162L1892,1162L1910,1013Z" fill="#237ab6" stroke="#237ab6" stroke-width="1.51"/><path d="M1382,1311L1583,1338L1517,1155Z" fill="#2f7eb5" stroke="#2f7eb5" stroke-width="1.51"/><path d="M1547,1520L1583,1338L1382,1311Z" fill="#3275b0" stroke="#3275b0" stroke-width="1.51"/><path d="M1547,1520L1714,1383L1583,1338Z" fill="#2d6eaf" stroke="#2d6eaf" stroke-width="1.51"/><path d="M868,1370L1027,1356L991,1169Z" fill="#558eb2" stroke="#558eb2" stroke-width="1.51"/><path d="M868,1370L991,1169L841,1143Z" fill="#5996b4" stroke="#5996b4" stroke-width="1.51"/><path d="M667,977L685,1150L828,998Z" fill="#6daebb" stroke="#6daebb" stroke-width="1.51"/><path d="M489,616L496,839L633,650Z" fill="#8bcebc" stroke="#8bcebc" stroke-width="1.51"/><path d="M448,1142L685,1150L667,977Z" fill="#79adb8" stroke="#79adb8" stroke-width="1.51"/><path d="M2104,994L2120,817L1884,837Z" fill="#2c81b7" stroke="#2c81b7" stroke-width="1.51"/><path d="M1891,1310L1892,1162L1745,1162Z" fill="#2472b2" stroke="#2472b2" stroke-width="1.51"/><path d="M1585,-301L1335,-292L1548,-121Z" fill="#a5cfc6" stroke="#a5cfc6" stroke-width="1.51"/><path d="M866,-69L656,-86L840,68Z" fill="#bde4b6" stroke="#bde4b6" stroke-width="1.51"/><path d="M1213,-235L986,-237L1019,-107Z" fill="#b3dec0" stroke="#b3dec0" stroke-width="1.51"/><path d="M1335,-292L986,-237L1213,-235Z" fill="#afdcc6" stroke="#afdcc6" stroke-width="1.51"/><path d="M1901,115L1942,-56L1732,-103Z" fill="#96b5b6" stroke="#96b5b6" stroke-width="1.51"/><path d="M2051,435L2084,237L1933,259Z" fill="#729fb3" stroke="#729fb3" stroke-width="1.51"/><path d="M2257,297L2084,237L2051,435Z" fill="#6f97b0" stroke="#6f97b0" stroke-width="1.51"/><path d="M2071,644L2234,455L2051,435Z" fill="#5590b2" stroke="#5590b2" stroke-width="1.51"/><path d="M2104,994L1884,837L1910,1013Z" fill="#2682b8" stroke="#2682b8" stroke-width="1.51"/><path d="M496,839L493,953L667,977Z" fill="#81bebc" stroke="#81bebc" stroke-width="1.51"/><path d="M270,964L493,953L496,839Z" fill="#8cc1bc" stroke="#8cc1bc" stroke-width="1.51"/><path d="M2084,237L2063,116L1933,259Z" fill="#81a3b2" stroke="#81a3b2" stroke-width="1.51"/><path d="M2063,116L1942,-56L1901,115Z" fill="#8facb3" stroke="#8facb3" stroke-width="1.51"/><path d="M1732,-103L1585,-301L1548,-121Z" fill="#a0c7c1" stroke="#a0c7c1" stroke-width="1.51"/><path d="M479,77L446,255L630,301Z" fill="#c0e6b5" stroke="#c0e6b5" stroke-width="1.51"/><path d="M286,419L295,663L489,616Z" fill="#a2d8b9" stroke="#a2d8b9" stroke-width="1.51"/><path d="M489,616L295,663L496,839Z" fill="#94d1bd" stroke="#94d1bd" stroke-width="1.51"/><path d="M840,-267L656,-86L866,-69Z" fill="#c3e6ba" stroke="#c3e6ba" stroke-width="1.51"/><path d="M647,62L479,77L630,301Z" fill="#c1e6b5" stroke="#c1e6b5" stroke-width="1.51"/><path d="M1744,-289L1585,-301L1732,-103Z" fill="#a0c5c5" stroke="#a0c5c5" stroke-width="1.51"/><path d="M652,1354L868,1370L685,1150Z" fill="#6a95b0" stroke="#6a95b0" stroke-width="1.51"/><path d="M685,1150L868,1370L841,1143Z" fill="#649ab4" stroke="#649ab4" stroke-width="1.51"/><path d="M1547,1520L1382,1311L1362,1562Z" fill="#3772ae" stroke="#3772ae" stroke-width="1.51"/><path d="M2106,1138L2104,994L1910,1013Z" fill="#2375b3" stroke="#2375b3" stroke-width="1.51"/><path d="M1583,1338L1714,1383L1745,1162Z" fill="#2574b3" stroke="#2574b3" stroke-width="1.51"/><path d="M1892,1162L2106,1138L1910,1013Z" fill="#2374b3" stroke="#2374b3" stroke-width="1.51"/><path d="M1382,1311L1214,1329L1362,1562Z" fill="#3a7cb1" stroke="#3a7cb1" stroke-width="1.51"/><path d="M986,-237L840,-267L866,-69Z" fill="#bce3be" stroke="#bce3be" stroke-width="1.51"/><path d="M1335,-292L840,-267L986,-237Z" fill="#b6e0c6" stroke="#b6e0c6" stroke-width="1.51"/><path d="M453,-73L647,62L656,-86Z" fill="#ceebb4" stroke="#ceebb4" stroke-width="1.51"/><path d="M453,-73L479,77L647,62Z" fill="#ceebb4" stroke="#ceebb4" stroke-width="1.51"/><path d="M2279,639L2234,455L2071,644Z" fill="#4e89b2" stroke="#4e89b2" stroke-width="1.51"/><path d="M2084,237L2264,91L2063,116Z" fill="#869eaf" stroke="#869eaf" stroke-width="1.51"/><path d="M2279,639L2071,644L2120,817Z" fill="#3c86b4" stroke="#3c86b4" stroke-width="1.51"/><path d="M1714,1383L1891,1310L1745,1162Z" fill="#246fb0" stroke="#246fb0" stroke-width="1.51"/><path d="M1890,-292L1744,-289L1732,-103Z" fill="#9fbdc2" stroke="#9fbdc2" stroke-width="1.51"/><path d="M2251,822L2279,639L2120,817Z" fill="#387fb3" stroke="#387fb3" stroke-width="1.51"/><path d="M1197,1560L1214,1329L1027,1356Z" fill="#4880af" stroke="#4880af" stroke-width="1.51"/><path d="M1714,1383L1879,1558L1891,1310Z" fill="#2861aa" stroke="#2861aa" stroke-width="1.51"/><path d="M2295,957L2251,822L2104,994Z" fill="#2c75b2" stroke="#2c75b2" stroke-width="1.51"/><path d="M2104,994L2251,822L2120,817Z" fill="#2f7bb3" stroke="#2f7bb3" stroke-width="1.51"/><path d="M1891,1310L2106,1138L1892,1162Z" fill="#236aae" stroke="#236aae" stroke-width="1.51"/><path d="M286,419L506,432L446,255Z" fill="#b3e0b7" stroke="#b3e0b7" stroke-width="1.51"/><path d="M286,419L489,616L506,432Z" fill="#a5dab8" stroke="#a5dab8" stroke-width="1.51"/><path d="M2234,455L2257,297L2051,435Z" fill="#6591b0" stroke="#6591b0" stroke-width="1.51"/><path d="M2063,116L2095,-96L1942,-56Z" fill="#94a9b1" stroke="#94a9b1" stroke-width="1.51"/><path d="M1942,-56L1890,-292L1732,-103Z" fill="#9cb8bb" stroke="#9cb8bb" stroke-width="1.51"/><path d="M2419,435L2257,297L2234,455Z" fill="#658bad" stroke="#658bad" stroke-width="1.51"/><path d="M1043,1543L1197,1560L1027,1356Z" fill="#4e7cac" stroke="#4e7cac" stroke-width="1.51"/><path d="M1197,1560L1362,1562L1214,1329Z" fill="#4078ae" stroke="#4078ae" stroke-width="1.51"/><path d="M868,1370L1043,1543L1027,1356Z" fill="#5683ae" stroke="#5683ae" stroke-width="1.51"/><path d="M290,250L286,419L446,255Z" fill="#bee5b5" stroke="#bee5b5" stroke-width="1.51"/><path d="M868,1370L849,1540L1043,1543Z" fill="#5a80ab" stroke="#5a80ab" stroke-width="1.51"/><path d="M467,1311L652,1354L685,1150Z" fill="#789bb0" stroke="#789bb0" stroke-width="1.51"/><path d="M448,1142L667,977L493,953Z" fill="#81b6ba" stroke="#81b6ba" stroke-width="1.51"/><path d="M270,964L448,1142L493,953Z" fill="#8ababa" stroke="#8ababa" stroke-width="1.51"/><path d="M2252,-62L2095,-96L2063,116Z" fill="#93a2af" stroke="#93a2af" stroke-width="1.51"/><path d="M840,-267L675,-280L656,-86Z" fill="#caeabf" stroke="#caeabf" stroke-width="1.51"/><path d="M261,82L290,250L446,255Z" fill="#cdebb4" stroke="#cdebb4" stroke-width="1.51"/><path d="M1335,-292L675,-280L840,-267Z" fill="#bce3c6" stroke="#bce3c6" stroke-width="1.51"/><path d="M1585,-301L675,-280L1335,-292Z" fill="#b0dcc9" stroke="#b0dcc9" stroke-width="1.51"/><path d="M2095,-96L1890,-292L1942,-56Z" fill="#9bb0b7" stroke="#9bb0b7" stroke-width="1.51"/><path d="M1744,-289L1890,-292L1585,-301Z" fill="#a1c2c8" stroke="#a1c2c8" stroke-width="1.51"/><path d="M261,82L446,255L479,77Z" fill="#ceebb4" stroke="#ceebb4" stroke-width="1.51"/><path d="M436,-259L453,-73L656,-86Z" fill="#d9f0b7" stroke="#d9f0b7" stroke-width="1.51"/><path d="M1891,1310L2088,1362L2106,1138Z" fill="#2360a9" stroke="#2360a9" stroke-width="1.51"/><path d="M1547,1520L1728,1525L1714,1383Z" fill="#2c67ac" stroke="#2c67ac" stroke-width="1.51"/><path d="M1718,1706L1728,1525L1547,1520Z" fill="#2a60a3" stroke="#2a60a3" stroke-width="1.51"/><path d="M295,663L258,833L496,839Z" fill="#95cdbc" stroke="#95cdbc" stroke-width="1.51"/><path d="M149,814L258,833L295,663Z" fill="#9bd0bc" stroke="#9bd0bc" stroke-width="1.51"/><path d="M150,465L295,663L286,419Z" fill="#acdcb8" stroke="#acdcb8" stroke-width="1.51"/><path d="M652,1354L849,1540L868,1370Z" fill="#6689ac" stroke="#6689ac" stroke-width="1.51"/><path d="M1198,1704L1360,1669L1197,1560Z" fill="#3a6e9e" stroke="#3a6e9e" stroke-width="1.51"/><path d="M2106,1138L2295,957L2104,994Z" fill="#256fb0" stroke="#256fb0" stroke-width="1.51"/><path d="M2251,822L2444,799L2279,639Z" fill="#3a7ab0" stroke="#3a7ab0" stroke-width="1.51"/><path d="M2295,1193L2295,957L2106,1138Z" fill="#2765ac" stroke="#2765ac" stroke-width="1.51"/><path d="M2419,435L2234,455L2279,639Z" fill="#5685ae" stroke="#5685ae" stroke-width="1.51"/><path d="M2469,290L2264,91L2257,297Z" fill="#7e90ab" stroke="#7e90ab" stroke-width="1.51"/><path d="M2257,297L2264,91L2084,237Z" fill="#8098ae" stroke="#8098ae" stroke-width="1.51"/><path d="M448,1142L467,1311L685,1150Z" fill="#7fa4b3" stroke="#7fa4b3" stroke-width="1.51"/><path d="M258,833L270,964L496,839Z" fill="#92c6bc" stroke="#92c6bc" stroke-width="1.51"/><path d="M1362,1562L1514,1706L1547,1520Z" fill="#3268a3" stroke="#3268a3" stroke-width="1.51"/><path d="M1197,1560L1360,1669L1362,1562Z" fill="#396fa4" stroke="#396fa4" stroke-width="1.51"/><path d="M1198,1704L1197,1560L1043,1543Z" fill="#4673a2" stroke="#4673a2" stroke-width="1.51"/><path d="M319,1198L467,1311L448,1142Z" fill="#88a5b2" stroke="#88a5b2" stroke-width="1.51"/><path d="M652,1354L617,1528L849,1540Z" fill="#6f87aa" stroke="#6f87aa" stroke-width="1.51"/><path d="M1879,1558L2088,1362L1891,1310Z" fill="#275aa7" stroke="#275aa7" stroke-width="1.51"/><path d="M2468,594L2419,435L2279,639Z" fill="#527fad" stroke="#527fad" stroke-width="1.51"/><path d="M297,-55L261,82L479,77Z" fill="#d8f0b3" stroke="#d8f0b3" stroke-width="1.51"/><path d="M87,292L150,465L286,419Z" fill="#bce3b6" stroke="#bce3b6" stroke-width="1.51"/><path d="M297,-55L479,77L453,-73Z" fill="#d8efb3" stroke="#d8efb3" stroke-width="1.51"/><path d="M87,292L286,419L290,250Z" fill="#c2e6b5" stroke="#c2e6b5" stroke-width="1.51"/><path d="M258,833L149,814L270,964Z" fill="#99c9bb" stroke="#99c9bb" stroke-width="1.51"/><path d="M2264,91L2252,-62L2063,116Z" fill="#8e9dae" stroke="#8e9dae" stroke-width="1.51"/><path d="M2095,-96L2107,-277L1890,-292Z" fill="#9cadba" stroke="#9cadba" stroke-width="1.51"/><path d="M2427,61L2252,-62L2264,91Z" fill="#8f97aa" stroke="#8f97aa" stroke-width="1.51"/><path d="M976,1672L1198,1704L1043,1543Z" fill="#49739d" stroke="#49739d" stroke-width="1.51"/><path d="M822,1712L976,1672L849,1540Z" fill="#56789b" stroke="#56789b" stroke-width="1.51"/><path d="M849,1540L976,1672L1043,1543Z" fill="#5478a2" stroke="#5478a2" stroke-width="1.51"/><path d="M1728,1525L1879,1558L1714,1383Z" fill="#2a5fa9" stroke="#2a5fa9" stroke-width="1.51"/><path d="M1718,1706L1879,1558L1728,1525Z" fill="#27599f" stroke="#27599f" stroke-width="1.51"/><path d="M1514,1706L1362,1562L1360,1669Z" fill="#31689e" stroke="#31689e" stroke-width="1.51"/><path d="M119,1193L319,1198L270,964Z" fill="#92b2b5" stroke="#92b2b5" stroke-width="1.51"/><path d="M270,964L319,1198L448,1142Z" fill="#8db2b6" stroke="#8db2b6" stroke-width="1.51"/><path d="M1198,1704L1514,1706L1360,1669Z" fill="#316898" stroke="#316898" stroke-width="1.51"/><path d="M-34,633L84,602L-99,444Z" fill="#b3dfbd" stroke="#b3dfbd" stroke-width="1.51"/><path d="M313,-235L297,-55L453,-73Z" fill="#e1f3b5" stroke="#e1f3b5" stroke-width="1.51"/><path d="M84,602L149,814L295,663Z" fill="#a2d6bb" stroke="#a2d6bb" stroke-width="1.51"/><path d="M2276,-230L2107,-277L2095,-96Z" fill="#9ba4b5" stroke="#9ba4b5" stroke-width="1.51"/><path d="M2295,957L2444,799L2251,822Z" fill="#3373af" stroke="#3373af" stroke-width="1.51"/><path d="M2460,997L2444,799L2295,957Z" fill="#306cad" stroke="#306cad" stroke-width="1.51"/><path d="M2444,799L2468,594L2279,639Z" fill="#437aaf" stroke="#437aaf" stroke-width="1.51"/><path d="M484,1511L652,1354L467,1311Z" fill="#7e93ac" stroke="#7e93ac" stroke-width="1.51"/><path d="M484,1511L617,1528L652,1354Z" fill="#7a8baa" stroke="#7a8baa" stroke-width="1.51"/><path d="M675,-280L436,-259L656,-86Z" fill="#d5eebd" stroke="#d5eebd" stroke-width="1.51"/><path d="M2231,1353L2295,1193L2106,1138Z" fill="#255aa7" stroke="#255aa7" stroke-width="1.51"/><path d="M2231,1353L2106,1138L2088,1362Z" fill="#2459a6" stroke="#2459a6" stroke-width="1.51"/><path d="M87,292L290,250L95,82Z" fill="#d3edb4" stroke="#d3edb4" stroke-width="1.51"/><path d="M150,465L84,602L295,663Z" fill="#abdbb9" stroke="#abdbb9" stroke-width="1.51"/><path d="M2419,435L2469,290L2257,297Z" fill="#6e88aa" stroke="#6e88aa" stroke-width="1.51"/><path d="M2615,423L2469,290L2419,435Z" fill="#6780a7" stroke="#6780a7" stroke-width="1.51"/><path d="M2115,1505L2231,1353L2088,1362Z" fill="#2550a1" stroke="#2550a1" stroke-width="1.51"/><path d="M1514,1706L1718,1706L1547,1520Z" fill="#29609d" stroke="#29609d" stroke-width="1.51"/><path d="M2115,1505L2088,1362L1879,1558Z" fill="#2751a2" stroke="#2751a2" stroke-width="1.51"/><path d="M95,82L290,250L261,82Z" fill="#d7efb3" stroke="#d7efb3" stroke-width="1.51"/><path d="M2252,-62L2276,-230L2095,-96Z" fill="#99a0af" stroke="#99a0af" stroke-width="1.51"/><path d="M2469,290L2427,61L2264,91Z" fill="#8690a9" stroke="#8690a9" stroke-width="1.51"/><path d="M641,1708L822,1712L849,1540Z" fill="#607a99" stroke="#607a99" stroke-width="1.51"/><path d="M976,1672L822,1712L1198,1704Z" fill="#4b7196" stroke="#4b7196" stroke-width="1.51"/><path d="M1198,1704L448,1741L1514,1706Z" fill="#456f94" stroke="#456f94" stroke-width="1.51"/><path d="M2241,1726L2098,1711L1718,1706Z" fill="#1c448a" stroke="#1c448a" stroke-width="1.51"/><path d="M617,1528L641,1708L849,1540Z" fill="#6a7fa0" stroke="#6a7fa0" stroke-width="1.51"/><path d="M279,1376L484,1511L467,1311Z" fill="#8795ab" stroke="#8795ab" stroke-width="1.51"/><path d="M319,1198L279,1376L467,1311Z" fill="#8a9fae" stroke="#8a9fae" stroke-width="1.51"/><path d="M149,814L115,977L270,964Z" fill="#99c6bb" stroke="#99c6bb" stroke-width="1.51"/><path d="M-28,789L115,977L149,814Z" fill="#a0ccbb" stroke="#a0ccbb" stroke-width="1.51"/><path d="M2431,1163L2295,957L2295,1193Z" fill="#285fa9" stroke="#285fa9" stroke-width="1.51"/><path d="M2431,1163L2460,997L2295,957Z" fill="#2a62ab" stroke="#2a62ab" stroke-width="1.51"/><path d="M2444,799L2614,653L2468,594Z" fill="#4374ab" stroke="#4374ab" stroke-width="1.51"/><path d="M2098,1711L2115,1505L1879,1558Z" fill="#234998" stroke="#234998" stroke-width="1.51"/><path d="M141,-96L95,82L261,82Z" fill="#e1f3b2" stroke="#e1f3b2" stroke-width="1.51"/><path d="M436,-259L313,-235L453,-73Z" fill="#e1f4b9" stroke="#e1f4b9" stroke-width="1.51"/><path d="M2437,-55L2276,-230L2252,-62Z" fill="#989aac" stroke="#989aac" stroke-width="1.51"/><path d="M1718,1706L1876,1696L1879,1558Z" fill="#225397" stroke="#225397" stroke-width="1.51"/><path d="M141,-96L261,82L297,-55Z" fill="#e1f3b2" stroke="#e1f3b2" stroke-width="1.51"/><path d="M2428,1310L2431,1163L2295,1193Z" fill="#2652a2" stroke="#2652a2" stroke-width="1.51"/><path d="M2428,1310L2295,1193L2231,1353Z" fill="#2550a2" stroke="#2550a2" stroke-width="1.51"/><path d="M119,1193L279,1376L319,1198Z" fill="#90a4b0" stroke="#90a4b0" stroke-width="1.51"/><path d="M2427,61L2437,-55L2252,-62Z" fill="#9395a9" stroke="#9395a9" stroke-width="1.51"/><path d="M2617,116L2437,-55L2427,61Z" fill="#8d8da6" stroke="#8d8da6" stroke-width="1.51"/><path d="M484,1511L641,1708L617,1528Z" fill="#7684a1" stroke="#7684a1" stroke-width="1.51"/><path d="M448,1741L641,1708L484,1511Z" fill="#768198" stroke="#768198" stroke-width="1.51"/><path d="M313,-235L141,-96L297,-55Z" fill="#e6f5b4" stroke="#e6f5b4" stroke-width="1.51"/><path d="M2468,594L2615,423L2419,435Z" fill="#5a7ca8" stroke="#5a7ca8" stroke-width="1.51"/><path d="M2469,290L2588,256L2427,61Z" fill="#8089a7" stroke="#8089a7" stroke-width="1.51"/><path d="M2620,792L2614,653L2444,799Z" fill="#3a6fa7" stroke="#3a6fa7" stroke-width="1.51"/><path d="M2620,792L2444,799L2599,1000Z" fill="#3268a6" stroke="#3268a6" stroke-width="1.51"/><path d="M84,602L-28,789L149,814Z" fill="#a5d5bc" stroke="#a5d5bc" stroke-width="1.51"/><path d="M115,977L119,1193L270,964Z" fill="#97bbb8" stroke="#97bbb8" stroke-width="1.51"/><path d="M-99,444L84,602L150,465Z" fill="#b6e0b9" stroke="#b6e0b9" stroke-width="1.51"/><path d="M-99,444L150,465L87,292Z" fill="#c0e5b7" stroke="#c0e5b7" stroke-width="1.51"/><path d="M-34,1177L119,1193L115,977Z" fill="#9bb6b5" stroke="#9bb6b5" stroke-width="1.51"/><path d="M2614,653L2615,423L2468,594Z" fill="#5077a4" stroke="#5077a4" stroke-width="1.51"/><path d="M2615,423L2588,256L2469,290Z" fill="#6d81a3" stroke="#6d81a3" stroke-width="1.51"/><path d="M-34,633L-28,789L84,602Z" fill="#abd9be" stroke="#abd9be" stroke-width="1.51"/><path d="M2614,653L2808,479L2615,423Z" fill="#4f749a" stroke="#4f749a" stroke-width="1.51"/><path d="M2599,1000L2444,799L2460,997Z" fill="#3065aa" stroke="#3065aa" stroke-width="1.51"/><path d="M2431,1163L2599,1000L2460,997Z" fill="#2a5ca7" stroke="#2a5ca7" stroke-width="1.51"/><path d="M2286,1525L2428,1310L2231,1353Z" fill="#26489e" stroke="#26489e" stroke-width="1.51"/><path d="M2286,1525L2231,1353L2115,1505Z" fill="#26489e" stroke="#26489e" stroke-width="1.51"/><path d="M2623,1172L2599,1000L2431,1163Z" fill="#2854a0" stroke="#2854a0" stroke-width="1.51"/><path d="M2241,1726L2286,1525L2115,1505Z" fill="#234094" stroke="#234094" stroke-width="1.51"/><path d="M-86,280L-99,444L87,292Z" fill="#caeaba" stroke="#caeaba" stroke-width="1.51"/><path d="M-34,633L-213,652L-28,789Z" fill="#abd9c3" stroke="#abd9c3" stroke-width="1.51"/><path d="M-86,280L87,292L95,82Z" fill="#d7efb5" stroke="#d7efb5" stroke-width="1.51"/><path d="M2437,-55L2435,-254L2276,-230Z" fill="#9997af" stroke="#9997af" stroke-width="1.51"/><path d="M2588,256L2617,116L2427,61Z" fill="#8489a3" stroke="#8489a3" stroke-width="1.51"/><path d="M2797,242L2617,116L2588,256Z" fill="#788299" stroke="#788299" stroke-width="1.51"/><path d="M2647,-100L2617,116L2795,105Z" fill="#848696" stroke="#848696" stroke-width="1.51"/><path d="M119,1193L147,1374L279,1376Z" fill="#93a0ae" stroke="#93a0ae" stroke-width="1.51"/><path d="M279,1376L259,1518L484,1511Z" fill="#8a90a8" stroke="#8a90a8" stroke-width="1.51"/><path d="M-97,1337L147,1374L119,1193Z" fill="#99a3ae" stroke="#99a3ae" stroke-width="1.51"/><path d="M1876,1696L2098,1711L1879,1558Z" fill="#214b93" stroke="#214b93" stroke-width="1.51"/><path d="M1718,1706L2098,1711L1876,1696Z" fill="#1f4c8f" stroke="#1f4c8f" stroke-width="1.51"/><path d="M2241,1726L1718,1706L1514,1706Z" fill="#1f5090" stroke="#1f5090" stroke-width="1.51"/><path d="M2610,-236L2435,-254L2437,-55Z" fill="#9991ac" stroke="#9991ac" stroke-width="1.51"/><path d="M2276,-230L2435,-254L2107,-277Z" fill="#9c9eb7" stroke="#9c9eb7" stroke-width="1.51"/><path d="M-101,73L-86,280L95,82Z" fill="#dff3b8" stroke="#dff3b8" stroke-width="1.51"/><path d="M147,1374L259,1518L279,1376Z" fill="#9096aa" stroke="#9096aa" stroke-width="1.51"/><path d="M-28,789L-59,996L115,977Z" fill="#a0c8be" stroke="#a0c8be" stroke-width="1.51"/><path d="M-251,955L-59,996L-28,789Z" fill="#a2cac3" stroke="#a2cac3" stroke-width="1.51"/><path d="M-69,-96L-101,73L95,82Z" fill="#e8f6b6" stroke="#e8f6b6" stroke-width="1.51"/><path d="M313,-235L118,-250L141,-96Z" fill="#ebf8b9" stroke="#ebf8b9" stroke-width="1.51"/><path d="M436,-259L118,-250L313,-235Z" fill="#e9f6be" stroke="#e9f6be" stroke-width="1.51"/><path d="M-54,-270L118,-250L436,-259Z" fill="#eff9be" stroke="#eff9be" stroke-width="1.51"/><path d="M822,1712L448,1741L1198,1704Z" fill="#567591" stroke="#567591" stroke-width="1.51"/><path d="M641,1708L448,1741L822,1712Z" fill="#687a90" stroke="#687a90" stroke-width="1.51"/><path d="M321,1677L448,1741L484,1511Z" fill="#7d8499" stroke="#7d8499" stroke-width="1.51"/><path d="M259,1518L321,1677L484,1511Z" fill="#8689a1" stroke="#8689a1" stroke-width="1.51"/><path d="M123,1714L321,1677L259,1518Z" fill="#878799" stroke="#878799" stroke-width="1.51"/><path d="M-59,996L-34,1177L115,977Z" fill="#9dbdbb" stroke="#9dbdbb" stroke-width="1.51"/><path d="M2607,1318L2431,1163L2428,1310Z" fill="#26499e" stroke="#26499e" stroke-width="1.51"/><path d="M2607,1318L2623,1172L2431,1163Z" fill="#244a9b" stroke="#244a9b" stroke-width="1.51"/><path d="M2823,622L2614,653L2620,792Z" fill="#3b6e9c" stroke="#3b6e9c" stroke-width="1.51"/><path d="M2797,242L2588,256L2615,423Z" fill="#6b7e99" stroke="#6b7e99" stroke-width="1.51"/><path d="M-69,-96L95,82L141,-96Z" fill="#eaf7b2" stroke="#eaf7b2" stroke-width="1.51"/><path d="M-223,414L-213,652L-99,444Z" fill="#bbe2c4" stroke="#bbe2c4" stroke-width="1.51"/><path d="M86,1500L259,1518L147,1374Z" fill="#9394a9" stroke="#9394a9" stroke-width="1.51"/><path d="M2098,1711L2241,1726L2115,1505Z" fill="#1f408e" stroke="#1f408e" stroke-width="1.51"/><path d="M2452,1542L2607,1318L2428,1310Z" fill="#263f99" stroke="#263f99" stroke-width="1.51"/><path d="M448,1741L2241,1726L1514,1706Z" fill="#2d6494" stroke="#2d6494" stroke-width="1.51"/><path d="M-212,1160L-97,1337L-34,1177Z" fill="#9cacb9" stroke="#9cacb9" stroke-width="1.51"/><path d="M-99,444L-213,652L-34,633Z" fill="#b4dec1" stroke="#b4dec1" stroke-width="1.51"/><path d="M-223,414L-99,444L-86,280Z" fill="#c7e8bf" stroke="#c7e8bf" stroke-width="1.51"/><path d="M2617,116L2647,-100L2437,-55Z" fill="#8e8ba0" stroke="#8e8ba0" stroke-width="1.51"/><path d="M2808,479L2614,653L2823,622Z" fill="#456f96" stroke="#456f96" stroke-width="1.51"/><path d="M-278,287L-223,414L-86,280Z" fill="#ceecc1" stroke="#ceecc1" stroke-width="1.51"/><path d="M118,-250L-69,-96L141,-96Z" fill="#eff9b6" stroke="#eff9b6" stroke-width="1.51"/><path d="M2452,1542L2428,1310L2286,1525Z" fill="#263f99" stroke="#263f99" stroke-width="1.51"/><path d="M2620,792L2599,1000L2780,958Z" fill="#2a619d" stroke="#2a619d" stroke-width="1.51"/><path d="M2823,622L2620,792L2812,839Z" fill="#316897" stroke="#316897" stroke-width="1.51"/><path d="M2427,1684L2452,1542L2286,1525Z" fill="#233790" stroke="#233790" stroke-width="1.51"/><path d="M-216,100L-86,280L-101,73Z" fill="#e1f4bc" stroke="#e1f4bc" stroke-width="1.51"/><path d="M-97,1337L86,1500L147,1374Z" fill="#989aab" stroke="#989aab" stroke-width="1.51"/><path d="M2780,958L2599,1000L2787,1173Z" fill="#225595" stroke="#225595" stroke-width="1.51"/><path d="M2808,479L2797,242L2615,423Z" fill="#5d7894" stroke="#5d7894" stroke-width="1.51"/><path d="M2969,291L2797,242L2808,479Z" fill="#5e768b" stroke="#5e768b" stroke-width="1.51"/><path d="M2787,1173L2599,1000L2623,1172Z" fill="#225197" stroke="#225197" stroke-width="1.51"/><path d="M2647,-100L2610,-236L2437,-55Z" fill="#948ea3" stroke="#948ea3" stroke-width="1.51"/><path d="M2773,-95L2610,-236L2647,-100Z" fill="#8f8a9b" stroke="#8f8a9b" stroke-width="1.51"/><path d="M2780,958L2812,839L2620,792Z" fill="#2b6297" stroke="#2b6297" stroke-width="1.51"/><path d="M-213,652L-252,802L-28,789Z" fill="#a9d7c7" stroke="#a9d7c7" stroke-width="1.51"/><path d="M-34,1177L-97,1337L119,1193Z" fill="#9aaab4" stroke="#9aaab4" stroke-width="1.51"/><path d="M-278,287L-252,802L-213,652Z" fill="#b6e0c8" stroke="#b6e0c8" stroke-width="1.51"/><path d="M2797,242L2795,105L2617,116Z" fill="#7a8293" stroke="#7a8293" stroke-width="1.51"/><path d="M2969,291L2795,105L2797,242Z" fill="#6f7b8a" stroke="#6f7b8a" stroke-width="1.51"/><path d="M-223,414L-278,287L-213,652Z" fill="#c0e5c6" stroke="#c0e5c6" stroke-width="1.51"/><path d="M-263,-115L-216,100L-101,73Z" fill="#ecf8be" stroke="#ecf8be" stroke-width="1.51"/><path d="M-69,-96L-263,-115L-101,73Z" fill="#eff9bb" stroke="#eff9bb" stroke-width="1.51"/><path d="M118,-250L-54,-270L-69,-96Z" fill="#f3fabe" stroke="#f3fabe" stroke-width="1.51"/><path d="M675,-280L-54,-270L436,-259Z" fill="#e6f6bf" stroke="#e6f6bf" stroke-width="1.51"/><path d="M1585,-301L-54,-270L675,-280Z" fill="#cbeac3" stroke="#cbeac3" stroke-width="1.51"/><path d="M-212,1160L-34,1177L-59,996Z" fill="#9eb8bd" stroke="#9eb8bd" stroke-width="1.51"/><path d="M-252,802L-251,955L-28,789Z" fill="#a6cfc7" stroke="#a6cfc7" stroke-width="1.51"/><path d="M-216,100L-278,287L-86,280Z" fill="#dbf1c0" stroke="#dbf1c0" stroke-width="1.51"/><path d="M-252,802L-278,287L-251,955Z" fill="#afdbcb" stroke="#afdbcb" stroke-width="1.51"/><path d="M2241,1726L2427,1684L2286,1525Z" fill="#1f388b" stroke="#1f388b" stroke-width="1.51"/><path d="M2452,1542L2636,1504L2607,1318Z" fill="#233790" stroke="#233790" stroke-width="1.51"/><path d="M2837,1381L2787,1173L2607,1318Z" fill="#1d3e8a" stroke="#1d3e8a" stroke-width="1.51"/><path d="M2607,1318L2787,1173L2623,1172Z" fill="#204791" stroke="#204791" stroke-width="1.51"/><path d="M2951,846L2959,648L2812,839Z" fill="#2a628c" stroke="#2a628c" stroke-width="1.51"/><path d="M-251,955L-212,1160L-59,996Z" fill="#a0c0c4" stroke="#a0c0c4" stroke-width="1.51"/><path d="M2795,105L2773,-95L2647,-100Z" fill="#868692" stroke="#868692" stroke-width="1.51"/><path d="M-32,1536L86,1500L-97,1337Z" fill="#9996ac" stroke="#9996ac" stroke-width="1.51"/><path d="M-32,1536L123,1714L86,1500Z" fill="#938da0" stroke="#938da0" stroke-width="1.51"/><path d="M86,1500L123,1714L259,1518Z" fill="#8f8ca0" stroke="#8f8ca0" stroke-width="1.51"/><path d="M321,1677L123,1714L448,1741Z" fill="#7f8390" stroke="#7f8390" stroke-width="1.51"/><path d="M2597,1684L2636,1504L2452,1542Z" fill="#203088" stroke="#203088" stroke-width="1.51"/><path d="M-223,1545L-32,1536L-97,1337Z" fill="#9a96b1" stroke="#9a96b1" stroke-width="1.51"/><path d="M2823,622L2961,454L2808,479Z" fill="#466e8c" stroke="#466e8c" stroke-width="1.51"/><path d="M2795,105L2958,-99L2773,-95Z" fill="#81828a" stroke="#81828a" stroke-width="1.51"/><path d="M2812,839L2959,648L2823,622Z" fill="#31678e" stroke="#31678e" stroke-width="1.51"/><path d="M2951,846L2812,839L2780,958Z" fill="#255c8f" stroke="#255c8f" stroke-width="1.51"/><path d="M2959,648L2961,454L2823,622Z" fill="#406a8b" stroke="#406a8b" stroke-width="1.51"/><path d="M2949,1002L2780,958L2787,1173Z" fill="#1d518c" stroke="#1d518c" stroke-width="1.51"/><path d="M2949,1002L2951,846L2780,958Z" fill="#1f588b" stroke="#1f588b" stroke-width="1.51"/><path d="M-216,-246L-263,-115L-69,-96Z" fill="#f5fbc3" stroke="#f5fbc3" stroke-width="1.51"/><path d="M-216,100L-263,-115L-278,287Z" fill="#e8f6c2" stroke="#e8f6c2" stroke-width="1.51"/><path d="M2961,454L2969,291L2808,479Z" fill="#527189" stroke="#527189" stroke-width="1.51"/><path d="M2959,648L2969,291L2961,454Z" fill="#4b6f89" stroke="#4b6f89" stroke-width="1.51"/><path d="M-54,-270L-216,-246L-69,-96Z" fill="#f5fbc3" stroke="#f5fbc3" stroke-width="1.51"/><path d="M2773,-95L2776,-293L2610,-236Z" fill="#8e899c" stroke="#8e899c" stroke-width="1.51"/><path d="M2610,-236L2776,-293L2435,-254Z" fill="#958ea8" stroke="#958ea8" stroke-width="1.51"/><path d="M2435,-254L2776,-293L2107,-277Z" fill="#9c95b4" stroke="#9c95b4" stroke-width="1.51"/><path d="M2107,-277L2776,-293L1890,-292Z" fill="#9d9fba" stroke="#9d9fba" stroke-width="1.51"/><path d="M1890,-292L2776,-293L1585,-301Z" fill="#9da9be" stroke="#9da9be" stroke-width="1.51"/><path d="M2971,-238L2776,-293L2773,-95Z" fill="#888592" stroke="#888592" stroke-width="1.51"/><path d="M2965,1135L2949,1002L2787,1173Z" fill="#194a86" stroke="#194a86" stroke-width="1.51"/><path d="M2951,846L3016,1364L2959,648Z" fill="#1e578b" stroke="#1e578b" stroke-width="1.51"/><path d="M2636,1504L2837,1381L2607,1318Z" fill="#1f3889" stroke="#1f3889" stroke-width="1.51"/><path d="M2427,1684L2597,1684L2452,1542Z" fill="#1f2f87" stroke="#1f2f87" stroke-width="1.51"/><path d="M2241,1726L2597,1684L2427,1684Z" fill="#1c3082" stroke="#1c3082" stroke-width="1.51"/><path d="M-212,1160L-244,1374L-97,1337Z" fill="#9da6ba" stroke="#9da6ba" stroke-width="1.51"/><path d="M-32,1536L-60,1669L123,1714Z" fill="#908a9b" stroke="#908a9b" stroke-width="1.51"/><path d="M-251,955L-244,1374L-212,1160Z" fill="#9fb3c1" stroke="#9fb3c1" stroke-width="1.51"/><path d="M-278,287L-244,1374L-251,955Z" fill="#a6cfcb" stroke="#a6cfcb" stroke-width="1.51"/><path d="M-223,1545L-60,1669L-32,1536Z" fill="#958ea7" stroke="#958ea7" stroke-width="1.51"/><path d="M2831,1496L2837,1381L2636,1504Z" fill="#1c3181" stroke="#1c3181" stroke-width="1.51"/><path d="M2837,1381L2965,1135L2787,1173Z" fill="#184082" stroke="#184082" stroke-width="1.51"/><path d="M2949,1002L2965,1135L2951,846Z" fill="#1a548a" stroke="#1a548a" stroke-width="1.51"/><path d="M2959,648L2990,60L2969,291Z" fill="#5d7488" stroke="#5d7488" stroke-width="1.51"/><path d="M2969,291L2990,60L2795,105Z" fill="#727c87" stroke="#727c87" stroke-width="1.51"/><path d="M3016,1364L2990,60L2959,648Z" fill="#31668c" stroke="#31668c" stroke-width="1.51"/><path d="M2990,60L2958,-99L2795,105Z" fill="#7b7f86" stroke="#7b7f86" stroke-width="1.51"/><path d="M2774,1675L2831,1496L2636,1504Z" fill="#1b2b7d" stroke="#1b2b7d" stroke-width="1.51"/><path d="M2837,1381L3016,1364L2965,1135Z" fill="#17397d" stroke="#17397d" stroke-width="1.51"/><path d="M-244,1374L-223,1545L-97,1337Z" fill="#9c9bb6" stroke="#9c9bb6" stroke-width="1.51"/><path d="M2597,1684L2774,1675L2636,1504Z" fill="#1a2b7b" stroke="#1a2b7b" stroke-width="1.51"/><path d="M2831,1496L3016,1364L2837,1381Z" fill="#173179" stroke="#173179" stroke-width="1.51"/><path d="M2971,1710L2774,1675L2597,1684Z" fill="#12246b" stroke="#12246b" stroke-width="1.51"/><path d="M2958,-99L2971,-238L2773,-95Z" fill="#84828a" stroke="#84828a" stroke-width="1.51"/><path d="M2990,60L2971,-238L2958,-99Z" fill="#838187" stroke="#838187" stroke-width="1.51"/><path d="M-244,1374L-209,1685L-223,1545Z" fill="#9b91b2" stroke="#9b91b2" stroke-width="1.51"/><path d="M-223,1545L-209,1685L-60,1669Z" fill="#938ca4" stroke="#938ca4" stroke-width="1.51"/><path d="M-60,1669L-209,1685L123,1714Z" fill="#8c8898" stroke="#8c8898" stroke-width="1.51"/><path d="M3007,1560L3016,1364L2831,1496Z" fill="#172c77" stroke="#172c77" stroke-width="1.51"/><path d="M2965,1135L3016,1364L2951,846Z" fill="#194985" stroke="#194985" stroke-width="1.51"/><path d="M2971,1710L3007,1560L2831,1496Z" fill="#13266f" stroke="#13266f" stroke-width="1.51"/><path d="M2774,1675L2971,1710L2831,1496Z" fill="#13256d" stroke="#13256d" stroke-width="1.51"/><path d="M2241,1726L2971,1710L2597,1684Z" fill="#182877" stroke="#182877" stroke-width="1.51"/></svg>